SolidWorks IGES file using analytic representation for surfaces         S      1
1H,,1H;,10HPin.sldprt,53HC:\Users\Administrator\Desktop\tzb\新建文件夹\PG      1
in.IGS,15HSolidWorks 2024,15HSolidWorks 2024,32,308,15,308,15,10HPin.sldG      2
prt,1.,2,2HMM,50,0.125,13H241123.201830,1E-08,499990.,13HAdministrator, G      3
,11,0,13H241123.201830;                                                 G      4
     314       1       0       0       0                        00000200D      1
     314       0       8       1       0                               0D      2
     110       2       0       0       0                        01010000D      3
     110       0       0       1       0                               0D      4
     124       3       0       0       0                        00000000D      5
     124       0       0       4       0                               0D      6
     100       7       0       0       0               5        01010000D      7
     100       0       0       1       0                               0D      8
     120       8       0       0       0                        01010000D      9
     120       0       0       1       0                               0D     10
     126       9       0       0       0                        01010500D     11
     126       0       0       2       0                               0D     12
     100      11       0       0       0                        01010000D     13
     100       0       0       1       0                               0D     14
     126      12       0       0       0                        01010500D     15
     126       0       0       2       0                               0D     16
     124      14       0       0       0                        00000000D     17
     124       0       0       4       0                               0D     18
     100      18       0       0       0              17        01010000D     19
     100       0       0       1       0                               0D     20
     126      19       0       0       0                        01010500D     21
     126       0       0       2       0                               0D     22
     126      21       0       0       0                        01010500D     23
     126       0       0       2       0                               0D     24
     124      23       0       0       0                        00000000D     25
     124       0       0       4       0                               0D     26
     100      27       0       0       0              25        01010000D     27
     100       0       0       1       0                               0D     28
     102      28       0       0       0                        01010500D     29
     102       0       0       1       0                               0D     30
     102      29       0       0       0                        01010000D     31
     102       0       0       1       0                               0D     32
     142      30       0       0       0                        00010500D     33
     142       0       0       1       0                               0D     34
     144      31       0       0       0                        00000000D     35
     144       0      -1       1       0                               0D     36
     110      32       0       0       0                        01010000D     37
     110       0       0       1       0                               0D     38
     110      33       0       0       0                        01010000D     39
     110       0       0       1       0                               0D     40
     120      34       0       0       0                        01010000D     41
     120       0       0       1       0                               0D     42
     126      35       0       0       0                        01010500D     43
     126       0       0       2       0                               0D     44
     124      37       0       0       0                        00000000D     45
     124       0       0       4       0                               0D     46
     100      41       0       0       0              45        01010000D     47
     100       0       0       1       0                               0D     48
     126      42       0       0       0                        01010500D     49
     126       0       0       2       0                               0D     50
     110      44       0       0       0                        01010000D     51
     110       0       0       1       0                               0D     52
     126      45       0       0       0                        01010500D     53
     126       0       0       2       0                               0D     54
     100      47       0       0       0                        01010000D     55
     100       0       0       1       0                               0D     56
     126      48       0       0       0                        01010500D     57
     126       0       0       2       0                               0D     58
     110      50       0       0       0                        01010000D     59
     110       0       0       1       0                               0D     60
     102      51       0       0       0                        01010500D     61
     102       0       0       1       0                               0D     62
     102      52       0       0       0                        01010000D     63
     102       0       0       1       0                               0D     64
     142      53       0       0       0                        00010500D     65
     142       0       0       1       0                               0D     66
     144      54       0       0       0                        00000000D     67
     144       0      -1       1       0                               0D     68
     110      55       0       0       0                        01010000D     69
     110       0       0       1       0                               0D     70
     110      56       0       0       0                        01010000D     71
     110       0       0       1       0                               0D     72
     120      57       0       0       0                        01010000D     73
     120       0       0       1       0                               0D     74
     126      58       0       0       0                        01010500D     75
     126       0       0       2       0                               0D     76
     124      60       0       0       0                        00000000D     77
     124       0       0       4       0                               0D     78
     100      64       0       0       0              77        01010000D     79
     100       0       0       1       0                               0D     80
     126      65       0       0       0                        01010500D     81
     126       0       0       2       0                               0D     82
     110      67       0       0       0                        01010000D     83
     110       0       0       1       0                               0D     84
     126      68       0       0       0                        01010500D     85
     126       0       0       2       0                               0D     86
     100      70       0       0       0                        01010000D     87
     100       0       0       1       0                               0D     88
     126      71       0       0       0                        01010500D     89
     126       0       0       2       0                               0D     90
     110      73       0       0       0                        01010000D     91
     110       0       0       1       0                               0D     92
     102      74       0       0       0                        01010500D     93
     102       0       0       1       0                               0D     94
     102      75       0       0       0                        01010000D     95
     102       0       0       1       0                               0D     96
     142      76       0       0       0                        00010500D     97
     142       0       0       1       0                               0D     98
     144      77       0       0       0                        00000000D     99
     144       0      -1       1       0                               0D    100
     128      78       0       0       0                        01010000D    101
     128       0       0       3       0                               0D    102
     126      81       0       0       0                        01010500D    103
     126       0       0      22       0                               0D    104
     100     103       0       0       0                        01010000D    105
     100       0       0       1       0                               0D    106
     126     104       0       0       0                        01010500D    107
     126       0       0      22       0                               0D    108
     100     126       0       0       0                        01010000D    109
     100       0       0       1       0                               0D    110
     102     127       0       0       0                        01010500D    111
     102       0       0       1       0                               0D    112
     102     128       0       0       0                        01010000D    113
     102       0       0       1       0                               0D    114
     142     129       0       0       0                        00010500D    115
     142       0       0       1       0                               0D    116
     144     130       0       0       0                        00000000D    117
     144       0      -1       1       0                               0D    118
     110     131       0       0       0                        01010000D    119
     110       0       0       1       0                               0D    120
     110     132       0       0       0                        01010000D    121
     110       0       0       1       0                               0D    122
     120     133       0       0       0                        01010000D    123
     120       0       0       1       0                               0D    124
     126     134       0       0       0                        01010500D    125
     126       0       0       2       0                               0D    126
     110     136       0       0       0                        01010000D    127
     110       0       0       1       0                               0D    128
     126     137       0       0       0                        01010500D    129
     126       0       0       2       0                               0D    130
     124     139       0       0       0                        00000000D    131
     124       0       0       4       0                               0D    132
     100     143       0       0       0             131        01010000D    133
     100       0       0       1       0                               0D    134
     126     144       0       0       0                        01010500D    135
     126       0       0       2       0                               0D    136
     110     146       0       0       0                        01010000D    137
     110       0       0       1       0                               0D    138
     126     147       0       0       0                        01010500D    139
     126       0       0       2       0                               0D    140
     100     149       0       0       0                        01010000D    141
     100       0       0       1       0                               0D    142
     102     150       0       0       0                        01010500D    143
     102       0       0       1       0                               0D    144
     102     151       0       0       0                        01010000D    145
     102       0       0       1       0                               0D    146
     142     152       0       0       0                        00010500D    147
     142       0       0       1       0                               0D    148
     144     153       0       0       0                        00000000D    149
     144       0      -1       1       0                               0D    150
     110     154       0       0       0                        01010000D    151
     110       0       0       1       0                               0D    152
     110     155       0       0       0                        01010000D    153
     110       0       0       1       0                               0D    154
     120     156       0       0       0                        01010000D    155
     120       0       0       1       0                               0D    156
     126     157       0       0       0                        01010500D    157
     126       0       0       2       0                               0D    158
     110     159       0       0       0                        01010000D    159
     110       0       0       1       0                               0D    160
     126     160       0       0       0                        01010500D    161
     126       0       0       2       0                               0D    162
     124     162       0       0       0                        00000000D    163
     124       0       0       4       0                               0D    164
     100     166       0       0       0             163        01010000D    165
     100       0       0       1       0                               0D    166
     126     167       0       0       0                        01010500D    167
     126       0       0       2       0                               0D    168
     110     169       0       0       0                        01010000D    169
     110       0       0       1       0                               0D    170
     126     170       0       0       0                        01010500D    171
     126       0       0       2       0                               0D    172
     100     172       0       0       0                        01010000D    173
     100       0       0       1       0                               0D    174
     102     173       0       0       0                        01010500D    175
     102       0       0       1       0                               0D    176
     102     174       0       0       0                        01010000D    177
     102       0       0       1       0                               0D    178
     142     175       0       0       0                        00010500D    179
     142       0       0       1       0                               0D    180
     144     176       0       0       0                        00000000D    181
     144       0      -1       1       0                               0D    182
     110     177       0       0       0                        01010000D    183
     110       0       0       1       0                               0D    184
     124     178       0       0       0                        00000000D    185
     124       0       0       4       0                               0D    186
     100     182       0       0       0             185        01010000D    187
     100       0       0       1       0                               0D    188
     120     183       0       0       0                        01010000D    189
     120       0       0       1       0                               0D    190
     126     184       0       0       0                        01010500D    191
     126       0       0       2       0                               0D    192
     124     186       0       0       0                        00000000D    193
     124       0       0       4       0                               0D    194
     100     190       0       0       0             193        01010000D    195
     100       0       0       1       0                               0D    196
     126     191       0       0       0                        01010500D    197
     126       0       0       2       0                               0D    198
     100     193       0       0       0                        01010000D    199
     100       0       0       1       0                               0D    200
     126     194       0       0       0                        01010500D    201
     126       0       0       2       0                               0D    202
     124     196       0       0       0                        00000000D    203
     124       0       0       4       0                               0D    204
     100     200       0       0       0             203        01010000D    205
     100       0       0       1       0                               0D    206
     102     201       0       0       0                        01010500D    207
     102       0       0       1       0                               0D    208
     102     202       0       0       0                        01010000D    209
     102       0       0       1       0                               0D    210
     142     203       0       0       0                        00010500D    211
     142       0       0       1       0                               0D    212
     144     204       0       0       0                        00000000D    213
     144       0      -1       1       0                               0D    214
     128     205       0       0       0                        01010000D    215
     128       0       0       3       0                               0D    216
     126     208       0       0       0                        01010500D    217
     126       0       0      22       0                               0D    218
     100     230       0       0       0                        01010000D    219
     100       0       0       1       0                               0D    220
     126     231       0       0       0                        01010500D    221
     126       0       0      22       0                               0D    222
     100     253       0       0       0                        01010000D    223
     100       0       0       1       0                               0D    224
     102     254       0       0       0                        01010500D    225
     102       0       0       1       0                               0D    226
     102     255       0       0       0                        01010000D    227
     102       0       0       1       0                               0D    228
     142     256       0       0       0                        00010500D    229
     142       0       0       1       0                               0D    230
     126     257       0       0       0                        01010500D    231
     126       0       0      22       0                               0D    232
     124     279       0       0       0                        00000000D    233
     124       0       0       4       0                               0D    234
     100     283       0       0       0             233        01010000D    235
     100       0       0       1       0                               0D    236
     126     284       0       0       0                        01010500D    237
     126       0       0      22       0                               0D    238
     124     306       0       0       0                        00000000D    239
     124       0       0       4       0                               0D    240
     100     310       0       0       0             239        01010000D    241
     100       0       0       1       0                               0D    242
     102     311       0       0       0                        01010500D    243
     102       0       0       1       0                               0D    244
     102     312       0       0       0                        01010000D    245
     102       0       0       1       0                               0D    246
     142     313       0       0       0                        00010500D    247
     142       0       0       1       0                               0D    248
     144     314       0       0       0                        00000000D    249
     144       0      -1       1       0                               0D    250
314,79.2156862745098,81.9607843137255,93.3333333333333,;               1P      1
110,5.,60.,0.333333333,5.,60.,6.;                                      3P      2
124,1.40271576953299E-14,1.,0.,-55.0000000000001,                      5P      3
-6.12323399573677E-17,8.58915688636046E-31,-1.,                        5P      4
60.3333333333333,-1.,1.40271576953299E-14,6.12323399573677E-17,        5P      5
5.33333333333249;                                                      5P      6
100,0.333333333,5.,60.,10.666666667,60.,-0.666666667,60.;              7P      7
120,3,7,0.,6.28318530717959;                                           9P      8
126,1,1,1,0,1,0,0.,0.,1.,1.,1.,1.,2.060753643,0.,0.,                  11P      9
2.060753643,3.141592654,0.,0.,1.,0.,0.,1.;                            11P     10
100,3.,5.,60.,10.,60.,0.,60.;                                         13P     11
126,1,1,1,0,1,0,0.,0.,1.,1.,1.,1.,2.060753643,3.141592654,0.,         15P     12
3.141592644,3.141592654,0.,0.,1.,0.,0.,1.;                            15P     13
124,-0.882352941176464,0.47058823529413,1.22464679914735E-16,         17P     14
-18.8235294117654,7.92418517095331E-17,-1.11658972863436E-16,         17P     15
1.,59.6666666666667,0.47058823529413,0.882352941176464,               17P     16
6.12323399573677E-17,-54.9607843137252;                               17P     17
100,0.333333333,5.,60.,10.666666667,60.,7.666666667,65.;              19P     18
126,1,1,1,0,1,0,0.,0.,1.,1.,1.,1.,3.141592644,3.141592654,0.,         21P     19
3.141592644,0.,0.,0.,1.,0.,0.,1.;                                     21P     20
126,1,1,1,0,1,0,0.,0.,1.,1.,1.,1.,3.141592644,0.,0.,                  23P     21
2.060753643,0.,0.,0.,1.,0.,0.,1.;                                     23P     22
124,1.40271576953299E-14,1.,0.,-55.0000000000001,                     25P     23
-6.12323399573677E-17,8.58915688636046E-31,1.,59.6666666666667,       25P     24
1.,-1.40271576953299E-14,6.12323399573677E-17,                        25P     25
-4.66666666666582;                                                    25P     26
100,0.333333333,5.,60.,10.666666667,60.,7.666666667,65.;              27P     27
102,4,11,15,21,23;                                                    29P     28
102,3,13,19,27;                                                       31P     29
142,1,9,29,31,1;                                                      33P     30
144,9,1,0,33;                                                         35P     31
110,5.,60.,3.,5.,60.,-997.;                                           37P     32
110,0.,60.,3.,0.,60.,0.;                                              39P     33
120,37,39,0.,6.28318530717959;                                        41P     34
126,1,1,1,0,1,0,0.,0.,1.,1.,1.,1.,0.,0.,0.,0.,3.141592654,0.,         43P     35
0.,1.,0.,0.,1.;                                                       43P     36
124,-1.,-6.98296267768627E-15,0.,10.0000000000004,                    45P     37
-6.98296267768627E-15,1.,-6.98296267768627E-15,                       45P     38
5.62162516117283E-14,4.87617677579594E-29,                            45P     39
-6.98296267768627E-15,-1.,6.00000000000042;                           45P     40
100,3.,5.,60.,10.,60.,0.,60.;                                         47P     41
126,1,1,1,0,1,0,0.,0.,1.,1.,1.,1.,0.,3.141592654,0.,1.,               49P     42
3.141592654,0.,0.,1.,0.,0.,1.;                                        49P     43
110,10.,60.,3.,10.,60.,0.;                                            51P     44
126,1,1,1,0,1,0,0.,0.,1.,1.,1.,1.,1.,3.141592654,0.,1.,0.,0.,         53P     45
0.,1.,0.,0.,1.;                                                       53P     46
100,0.,5.,60.,10.,60.,0.,60.;                                         55P     47
126,1,1,1,0,1,0,0.,0.,1.,1.,1.,1.,1.,0.,0.,0.,0.,0.,0.,1.,0.,         57P     48
0.,1.;                                                                57P     49
110,0.,60.,0.,0.,60.,3.;                                              59P     50
102,4,43,49,53,57;                                                    61P     51
102,4,47,51,55,59;                                                    63P     52
142,1,41,61,63,1;                                                     65P     53
144,41,1,0,65;                                                        67P     54
110,5.,60.,0.,5.,60.,-1000.;                                          69P     55
110,1.75,60.,0.,1.75,60.,-150.;                                       71P     56
120,69,71,0.,6.28318530717959;                                        73P     57
126,1,1,1,0,1,0,0.,0.,1.,1.,1.,1.,0.,0.,0.,0.,3.141592654,0.,         75P     58
0.,1.,0.,0.,1.;                                                       75P     59
124,-1.,-6.98296267768627E-15,0.,10.0000000000004,                    77P     60
-6.98296267768627E-15,1.,-6.98296267768627E-15,                       77P     61
3.51351572573324E-14,4.87617677579594E-29,                            77P     62
-6.98296267768627E-15,-1.,4.18977760661176E-13;                       77P     63
100,0.,5.,60.,8.25,60.,1.75,60.;                                      79P     64
126,1,1,1,0,1,0,0.,0.,1.,1.,1.,1.,0.,3.141592654,0.,1.,               81P     65
3.141592654,0.,0.,1.,0.,0.,1.;                                        81P     66
110,8.25,60.,0.,8.25,60.,-150.;                                       83P     67
126,1,1,1,0,1,0,0.,0.,1.,1.,1.,1.,1.,3.141592654,0.,1.,0.,0.,         85P     68
0.,1.,0.,0.,1.;                                                       85P     69
100,-150.,5.,60.,8.25,60.,1.75,60.;                                   87P     70
126,1,1,1,0,1,0,0.,0.,1.,1.,1.,1.,1.,0.,0.,0.,0.,0.,0.,1.,0.,         89P     71
0.,1.;                                                                89P     72
110,1.75,60.,-150.,1.75,60.,0.;                                       91P     73
102,4,75,81,85,89;                                                    93P     74
102,4,79,83,87,91;                                                    95P     75
142,1,73,93,95,1;                                                     97P     76
144,73,1,0,97;                                                        99P     77
128,1,1,1,1,0,0,1,0,0,0.,0.,1.,1.,0.,0.,1.,1.,1.,1.,1.,1.,           101P     78
1.711,56.711,-150.,8.289,56.711,-150.,1.711,63.289,-150.,8.289,      101P     79
63.289,-150.,0.,1.,0.,1.;                                            101P     80
126,32,2,1,0,1,0,0.,0.,0.,0.0625,0.0625,0.125,0.125,0.1875,          103P     81
0.1875,0.25,0.25,0.3125,0.3125,0.375,0.375,0.4375,0.4375,0.5,        103P     82
0.5,0.5625,0.5625,0.625,0.625,0.6875,0.6875,0.75,0.75,0.8125,        103P     83
0.8125,0.875,0.875,0.9375,0.9375,1.,1.,1.,1.,1.,1.,1.,1.,1.,1.,      103P     84
1.,1.,1.,1.,1.,1.,1.,1.,1.,1.,1.,1.,1.,1.,1.,1.,1.,1.,1.,1.,1.,      103P     85
1.,1.,1.,1.,1.,0.994071146,0.5,0.,0.994071146,0.548661761,0.,        103P     86
0.984577708,0.596388499,0.,0.975084269,0.644115237,0.,               103P     87
0.95646222,0.689072842,0.,0.93784017,0.734030447,0.,                 103P     88
0.910805144,0.774491222,0.,0.883770119,0.814951997,0.,               103P     89
0.849361058,0.849361058,0.,0.814951997,0.883770119,0.,               103P     90
0.774491222,0.910805144,0.,0.734030447,0.93784017,0.,                103P     91
0.689072842,0.95646222,0.,0.644115237,0.975084269,0.,                103P     92
0.596388499,0.984577708,0.,0.548661761,0.994071146,0.,0.5,           103P     93
0.994071146,0.,0.451338239,0.994071146,0.,0.403611501,               103P     94
0.984577708,0.,0.355884763,0.975084269,0.,0.310927158,               103P     95
0.95646222,0.,0.265969553,0.93784017,0.,0.225508778,                 103P     96
0.910805144,0.,0.185048003,0.883770119,0.,0.150638942,               103P     97
0.849361058,0.,0.116229881,0.814951997,0.,0.089194856,               103P     98
0.774491222,0.,0.06215983,0.734030447,0.,0.04353778,                 103P     99
0.689072842,0.,0.024915731,0.644115237,0.,0.015422292,               103P    100
0.596388499,0.,0.005928854,0.548661761,0.,0.005928854,0.5,0.,        103P    101
0.,1.,0.,0.,-1.;                                                     103P    102
100,-150.,5.,60.,8.25,60.,1.75,60.;                                  105P    103
126,32,2,1,0,1,0,0.,0.,0.,0.0625,0.0625,0.125,0.125,0.1875,          107P    104
0.1875,0.25,0.25,0.3125,0.3125,0.375,0.375,0.4375,0.4375,0.5,        107P    105
0.5,0.5625,0.5625,0.625,0.625,0.6875,0.6875,0.75,0.75,0.8125,        107P    106
0.8125,0.875,0.875,0.9375,0.9375,1.,1.,1.,1.,1.,1.,1.,1.,1.,1.,      107P    107
1.,1.,1.,1.,1.,1.,1.,1.,1.,1.,1.,1.,1.,1.,1.,1.,1.,1.,1.,1.,1.,      107P    108
1.,1.,1.,1.,1.,0.005928854,0.5,0.,0.005928854,0.451338239,0.,        107P    109
0.015422292,0.403611501,0.,0.024915731,0.355884763,0.,               107P    110
0.04353778,0.310927158,0.,0.06215983,0.265969553,0.,                 107P    111
0.089194856,0.225508778,0.,0.116229881,0.185048003,0.,               107P    112
0.150638942,0.150638942,0.,0.185048003,0.116229881,0.,               107P    113
0.225508778,0.089194856,0.,0.265969553,0.06215983,0.,                107P    114
0.310927158,0.04353778,0.,0.355884763,0.024915731,0.,                107P    115
0.403611501,0.015422292,0.,0.451338239,0.005928854,0.,0.5,           107P    116
0.005928854,0.,0.548661761,0.005928854,0.,0.596388499,               107P    117
0.015422292,0.,0.644115237,0.024915731,0.,0.689072842,               107P    118
0.04353778,0.,0.734030447,0.06215983,0.,0.774491222,                 107P    119
0.089194856,0.,0.814951997,0.116229881,0.,0.849361058,               107P    120
0.150638942,0.,0.883770119,0.185048003,0.,0.910805144,               107P    121
0.225508778,0.,0.93784017,0.265969553,0.,0.95646222,                 107P    122
0.310927158,0.,0.975084269,0.355884763,0.,0.984577708,               107P    123
0.403611501,0.,0.994071146,0.451338239,0.,0.994071146,0.5,0.,        107P    124
0.,1.,0.,0.,-1.;                                                     107P    125
100,-150.,5.,60.,1.75,60.,8.25,60.;                                  109P    126
102,2,103,107;                                                       111P    127
102,2,105,109;                                                       113P    128
142,1,101,111,113,1;                                                 115P    129
144,101,1,0,115;                                                     117P    130
110,5.,60.,0.,5.,60.,-1000.;                                         119P    131
110,1.75,60.,0.,1.75,60.,-150.;                                      121P    132
120,119,121,0.,6.28318530717959;                                     123P    133
126,1,1,1,0,1,0,0.,0.,1.,1.,1.,1.,1.,3.141592654,0.,0.,              125P    134
3.141592654,0.,0.,1.,0.,0.,1.;                                       125P    135
110,8.25,60.,-150.,8.25,60.,0.;                                      127P    136
126,1,1,1,0,1,0,0.,0.,1.,1.,1.,1.,0.,3.141592654,0.,0.,              129P    137
6.283185307,0.,0.,1.,0.,0.,1.;                                       129P    138
124,1.,-7.105427357601E-15,0.,4.25909307821826E-13,                  131P    139
-7.105427357601E-15,-1.,6.98296267768627E-15,120.,                   131P    140
-4.96169340471387E-29,-6.98296267768627E-15,-1.,                     131P    141
4.18977760661176E-13;                                                131P    142
100,0.,5.,60.,8.25,60.,1.75,60.;                                     133P    143
126,1,1,1,0,1,0,0.,0.,1.,1.,1.,1.,0.,6.283185307,0.,1.,              135P    144
6.283185307,0.,0.,1.,0.,0.,1.;                                       135P    145
110,1.75,60.,0.,1.75,60.,-150.;                                      137P    146
126,1,1,1,0,1,0,0.,0.,1.,1.,1.,1.,1.,6.283185307,0.,1.,              139P    147
3.141592654,0.,0.,1.,0.,0.,1.;                                       139P    148
100,-150.,5.,60.,1.75,60.,8.25,60.;                                  141P    149
102,4,125,129,135,139;                                               143P    150
102,4,127,133,137,141;                                               145P    151
142,1,123,143,145,1;                                                 147P    152
144,123,1,0,147;                                                     149P    153
110,5.,60.,3.,5.,60.,-997.;                                          151P    154
110,0.,60.,3.,0.,60.,0.;                                             153P    155
120,151,153,0.,6.28318530717959;                                     155P    156
126,1,1,1,0,1,0,0.,0.,1.,1.,1.,1.,1.,3.141592654,0.,0.,              157P    157
3.141592654,0.,0.,1.,0.,0.,1.;                                       157P    158
110,10.,60.,0.,10.,60.,3.;                                           159P    159
126,1,1,1,0,1,0,0.,0.,1.,1.,1.,1.,0.,3.141592654,0.,0.,              161P    160
6.283185307,0.,0.,1.,0.,0.,1.;                                       161P    161
124,1.,-7.105427357601E-15,0.,4.25909307821826E-13,                  163P    162
-7.105427357601E-15,-1.,6.98296267768627E-15,120.,                   163P    163
-4.96169340471387E-29,-6.98296267768627E-15,-1.,                     163P    164
6.00000000000042;                                                    163P    165
100,3.,5.,60.,10.,60.,0.,60.;                                        165P    166
126,1,1,1,0,1,0,0.,0.,1.,1.,1.,1.,0.,6.283185307,0.,1.,              167P    167
6.283185307,0.,0.,1.,0.,0.,1.;                                       167P    168
110,0.,60.,3.,0.,60.,0.;                                             169P    169
126,1,1,1,0,1,0,0.,0.,1.,1.,1.,1.,1.,6.283185307,0.,1.,              171P    170
3.141592654,0.,0.,1.,0.,0.,1.;                                       171P    171
100,0.,5.,60.,0.,60.,10.,60.;                                        173P    172
102,4,157,161,167,171;                                               175P    173
102,4,159,165,169,173;                                               177P    174
142,1,155,175,177,1;                                                 179P    175
144,155,1,0,179;                                                     181P    176
110,5.,60.,0.333333333,5.,60.,6.;                                    183P    177
124,1.40271576953299E-14,1.,0.,-55.0000000000001,                    185P    178
-6.12323399573677E-17,8.58915688636046E-31,-1.,                      185P    179
60.3333333333333,-1.,1.40271576953299E-14,6.12323399573677E-17,      185P    180
5.33333333333249;                                                    185P    181
100,0.333333333,5.,60.,10.666666667,60.,-0.666666667,60.;            187P    182
120,183,187,0.,6.28318530717959;                                     189P    183
126,1,1,1,0,1,0,0.,0.,1.,1.,1.,1.,3.141592644,3.141592654,0.,        191P    184
2.060753643,3.141592654,0.,0.,1.,0.,0.,1.;                           191P    185
124,-6.12323399573676E-17,-1.,-1.22464679914735E-16,65.,             193P    186
6.12323399573677E-17,1.22464679914735E-16,-1.,60.3333333333333,      193P    187
1.,-6.12323399573677E-17,6.12323399573677E-17,                       193P    188
-4.66666666666666;                                                   193P    189
100,0.333333333,5.,60.,10.666666667,60.,7.666666667,65.;             195P    190
126,1,1,1,0,1,0,0.,0.,1.,1.,1.,1.,2.060753643,3.141592654,0.,        197P    191
2.060753643,6.283185307,0.,0.,1.,0.,0.,1.;                           197P    192
100,3.,5.,60.,0.,60.,10.,60.;                                        199P    193
126,1,1,1,0,1,0,0.,0.,1.,1.,1.,1.,2.060753643,6.283185307,0.,        201P    194
3.141592644,6.283185307,0.,0.,1.,0.,0.,1.;                           201P    195
124,0.882352941176471,-0.470588235294117,0.,28.8235294117647,        203P    196
2.88152188034671E-17,5.40285352565009E-17,-1.,60.3333333333333,      203P    197
0.470588235294117,0.882352941176471,6.12323399573677E-17,            203P    198
-54.9607843137255;                                                   203P    199
100,0.333333333,5.,60.,10.666666667,60.,7.666666667,65.;             205P    200
102,3,191,197,201;                                                   207P    201
102,3,195,199,205;                                                   209P    202
142,1,189,207,209,1;                                                 211P    203
144,189,1,0,211;                                                     213P    204
128,1,1,1,1,0,0,1,0,0,0.,0.,1.,1.,0.,0.,1.,1.,1.,1.,1.,1.,           215P    205
-0.06,54.94,0.,10.06,54.94,0.,-0.06,65.06,0.,10.06,65.06,0.,0.,      215P    206
1.,0.,1.;                                                            215P    207
126,32,2,1,0,1,0,0.,0.,0.,0.0625,0.0625,0.125,0.125,0.1875,          217P    208
0.1875,0.25,0.25,0.3125,0.3125,0.375,0.375,0.4375,0.4375,0.5,        217P    209
0.5,0.5625,0.5625,0.625,0.625,0.6875,0.6875,0.75,0.75,0.8125,        217P    210
0.8125,0.875,0.875,0.9375,0.9375,1.,1.,1.,1.,1.,1.,1.,1.,1.,1.,      217P    211
1.,1.,1.,1.,1.,1.,1.,1.,1.,1.,1.,1.,1.,1.,1.,1.,1.,1.,1.,1.,1.,      217P    212
1.,1.,1.,1.,1.,0.994071146,0.5,0.,0.994071146,0.548661761,0.,        217P    213
0.984577708,0.596388499,0.,0.975084269,0.644115237,0.,               217P    214
0.95646222,0.689072842,0.,0.93784017,0.734030447,0.,                 217P    215
0.910805144,0.774491222,0.,0.883770119,0.814951997,0.,               217P    216
0.849361058,0.849361058,0.,0.814951997,0.883770119,0.,               217P    217
0.774491222,0.910805144,0.,0.734030447,0.93784017,0.,                217P    218
0.689072842,0.95646222,0.,0.644115237,0.975084269,0.,                217P    219
0.596388499,0.984577708,0.,0.548661761,0.994071146,0.,0.5,           217P    220
0.994071146,0.,0.451338239,0.994071146,0.,0.403611501,               217P    221
0.984577708,0.,0.355884763,0.975084269,0.,0.310927158,               217P    222
0.95646222,0.,0.265969553,0.93784017,0.,0.225508778,                 217P    223
0.910805144,0.,0.185048003,0.883770119,0.,0.150638942,               217P    224
0.849361058,0.,0.116229881,0.814951997,0.,0.089194856,               217P    225
0.774491222,0.,0.06215983,0.734030447,0.,0.04353778,                 217P    226
0.689072842,0.,0.024915731,0.644115237,0.,0.015422292,               217P    227
0.596388499,0.,0.005928854,0.548661761,0.,0.005928854,0.5,0.,        217P    228
0.,1.,0.,0.,-1.;                                                     217P    229
100,0.,5.,60.,10.,60.,0.,60.;                                        219P    230
126,32,2,1,0,1,0,0.,0.,0.,0.0625,0.0625,0.125,0.125,0.1875,          221P    231
0.1875,0.25,0.25,0.3125,0.3125,0.375,0.375,0.4375,0.4375,0.5,        221P    232
0.5,0.5625,0.5625,0.625,0.625,0.6875,0.6875,0.75,0.75,0.8125,        221P    233
0.8125,0.875,0.875,0.9375,0.9375,1.,1.,1.,1.,1.,1.,1.,1.,1.,1.,      221P    234
1.,1.,1.,1.,1.,1.,1.,1.,1.,1.,1.,1.,1.,1.,1.,1.,1.,1.,1.,1.,1.,      221P    235
1.,1.,1.,1.,1.,0.005928854,0.5,0.,0.005928854,0.451338239,0.,        221P    236
0.015422292,0.403611501,0.,0.024915731,0.355884763,0.,               221P    237
0.04353778,0.310927158,0.,0.06215983,0.265969553,0.,                 221P    238
0.089194856,0.225508778,0.,0.116229881,0.185048003,0.,               221P    239
0.150638942,0.150638942,0.,0.185048003,0.116229881,0.,               221P    240
0.225508778,0.089194856,0.,0.265969553,0.06215983,0.,                221P    241
0.310927158,0.04353778,0.,0.355884763,0.024915731,0.,                221P    242
0.403611501,0.015422292,0.,0.451338239,0.005928854,0.,0.5,           221P    243
0.005928854,0.,0.548661761,0.005928854,0.,0.596388499,               221P    244
0.015422292,0.,0.644115237,0.024915731,0.,0.689072842,               221P    245
0.04353778,0.,0.734030447,0.06215983,0.,0.774491222,                 221P    246
0.089194856,0.,0.814951997,0.116229881,0.,0.849361058,               221P    247
0.150638942,0.,0.883770119,0.185048003,0.,0.910805144,               221P    248
0.225508778,0.,0.93784017,0.265969553,0.,0.95646222,                 221P    249
0.310927158,0.,0.975084269,0.355884763,0.,0.984577708,               221P    250
0.403611501,0.,0.994071146,0.451338239,0.,0.994071146,0.5,0.,        221P    251
0.,1.,0.,0.,-1.;                                                     221P    252
100,0.,5.,60.,0.,60.,10.,60.;                                        223P    253
102,2,217,221;                                                       225P    254
102,2,219,223;                                                       227P    255
142,1,215,225,227,1;                                                 229P    256
126,32,2,1,0,1,0,0.,0.,0.,0.0625,0.0625,0.125,0.125,0.1875,          231P    257
0.1875,0.25,0.25,0.3125,0.3125,0.375,0.375,0.4375,0.4375,0.5,        231P    258
0.5,0.5625,0.5625,0.625,0.625,0.6875,0.6875,0.75,0.75,0.8125,        231P    259
0.8125,0.875,0.875,0.9375,0.9375,1.,1.,1.,1.,1.,1.,1.,1.,1.,1.,      231P    260
1.,1.,1.,1.,1.,1.,1.,1.,1.,1.,1.,1.,1.,1.,1.,1.,1.,1.,1.,1.,1.,      231P    261
1.,1.,1.,1.,1.,0.178853755,0.5,0.,0.178853755,0.531630144,0.,        231P    262
0.18502449,0.562652524,0.,0.191195225,0.593674904,0.,                231P    263
0.203299557,0.622897347,0.,0.215403889,0.65211979,0.,                231P    264
0.232976656,0.678419294,0.,0.250549423,0.704718798,0.,               231P    265
0.272915312,0.727084688,0.,0.295281202,0.749450577,0.,               231P    266
0.321580706,0.767023344,0.,0.34788021,0.784596111,0.,                231P    267
0.377102653,0.796700443,0.,0.406325096,0.808804775,0.,               231P    268
0.437347476,0.81497551,0.,0.468369856,0.821146245,0.,0.5,            231P    269
0.821146245,0.,0.531630144,0.821146245,0.,0.562652524,               231P    270
0.81497551,0.,0.593674904,0.808804775,0.,0.622897347,                231P    271
0.796700443,0.,0.65211979,0.784596111,0.,0.678419294,                231P    272
0.767023344,0.,0.704718798,0.749450577,0.,0.727084688,               231P    273
0.727084688,0.,0.749450577,0.704718798,0.,0.767023344,               231P    274
0.678419294,0.,0.784596111,0.65211979,0.,0.796700443,                231P    275
0.622897347,0.,0.808804775,0.593674904,0.,0.81497551,                231P    276
0.562652524,0.,0.821146245,0.531630144,0.,0.821146245,0.5,0.,        231P    277
0.,1.,0.,0.,1.;                                                      231P    278
124,-1.,-6.98296267768627E-15,0.,10.0000000000004,                   233P    279
-6.98296267768627E-15,1.,-6.98296267768627E-15,                      233P    280
3.51351572573324E-14,4.87617677579594E-29,                           233P    281
-6.98296267768627E-15,-1.,4.18977760661176E-13;                      233P    282
100,0.,5.,60.,8.25,60.,1.75,60.;                                     235P    283
126,32,2,1,0,1,0,0.,0.,0.,0.0625,0.0625,0.125,0.125,0.1875,          237P    284
0.1875,0.25,0.25,0.3125,0.3125,0.375,0.375,0.4375,0.4375,0.5,        237P    285
0.5,0.5625,0.5625,0.625,0.625,0.6875,0.6875,0.75,0.75,0.8125,        237P    286
0.8125,0.875,0.875,0.9375,0.9375,1.,1.,1.,1.,1.,1.,1.,1.,1.,1.,      237P    287
1.,1.,1.,1.,1.,1.,1.,1.,1.,1.,1.,1.,1.,1.,1.,1.,1.,1.,1.,1.,1.,      237P    288
1.,1.,1.,1.,1.,0.821146245,0.5,0.,0.821146245,0.468369856,0.,        237P    289
0.81497551,0.437347476,0.,0.808804775,0.406325096,0.,                237P    290
0.796700443,0.377102653,0.,0.784596111,0.34788021,0.,                237P    291
0.767023344,0.321580706,0.,0.749450577,0.295281202,0.,               237P    292
0.727084688,0.272915312,0.,0.704718798,0.250549423,0.,               237P    293
0.678419294,0.232976656,0.,0.65211979,0.215403889,0.,                237P    294
0.622897347,0.203299557,0.,0.593674904,0.191195225,0.,               237P    295
0.562652524,0.18502449,0.,0.531630144,0.178853755,0.,0.5,            237P    296
0.178853755,0.,0.468369856,0.178853755,0.,0.437347476,               237P    297
0.18502449,0.,0.406325096,0.191195225,0.,0.377102653,                237P    298
0.203299557,0.,0.34788021,0.215403889,0.,0.321580706,                237P    299
0.232976656,0.,0.295281202,0.250549423,0.,0.272915312,               237P    300
0.272915312,0.,0.250549423,0.295281202,0.,0.232976656,               237P    301
0.321580706,0.,0.215403889,0.34788021,0.,0.203299557,                237P    302
0.377102653,0.,0.191195225,0.406325096,0.,0.18502449,                237P    303
0.437347476,0.,0.178853755,0.468369856,0.,0.178853755,0.5,0.,        237P    304
0.,1.,0.,0.,1.;                                                      237P    305
124,1.,-7.105427357601E-15,0.,4.25909307821826E-13,                  239P    306
-7.105427357601E-15,-1.,6.98296267768627E-15,120.,                   239P    307
-4.96169340471387E-29,-6.98296267768627E-15,-1.,                     239P    308
4.18977760661176E-13;                                                239P    309
100,0.,5.,60.,8.25,60.,1.75,60.;                                     241P    310
102,2,231,237;                                                       243P    311
102,2,235,241;                                                       245P    312
142,1,215,243,245,1;                                                 247P    313
144,215,1,1,229,247;                                                 249P    314
S      1G      4D    250P    314                                        T      1
