ISO-10303-21;
HEADER;
/* Generated by software containing ST-Developer
 * from STEP Tools, Inc. (www.steptools.com) 
 */
/* OPTION: using custom schema-name function */

FILE_DESCRIPTION(
/* description */ (''),
/* implementation_level */ '2;1');

FILE_NAME(
/* name */ '\X2\96F64EF6\X0\1_par.stp',
/* time_stamp */ '2025-07-28T00:19:17+08:00',
/* author */ (''),
/* organization */ (''),
/* preprocessor_version */ 'ST-DEVELOPER v20',
/* originating_system */ 'SIEMENS PLM Software NX2312.8701',
/* authorisation */ '');

FILE_SCHEMA (('AUTOMOTIVE_DESIGN { 1 0 10303 214 3 1 1 1 }'));
ENDSEC;

DATA;
#10=SHAPE_REPRESENTATION_RELATIONSHIP('None',
'relationship between \X2\96F64EF6\X0\1_par-None and \X2\96F64EF6\X0\1
_par-None',#22,#11);
#11=ADVANCED_BREP_SHAPE_REPRESENTATION('\X2\96F64EF6\X0\1_par-None',(#32),
#225);
#12=SHAPE_DEFINITION_REPRESENTATION(#13,#22);
#13=PRODUCT_DEFINITION_SHAPE('','',#14);
#14=PRODUCT_DEFINITION(' ','',#16,#15);
#15=PRODUCT_DEFINITION_CONTEXT('part definition',#21,'design');
#16=PRODUCT_DEFINITION_FORMATION_WITH_SPECIFIED_SOURCE(' ',' ',#18,
 .NOT_KNOWN.);
#17=PRODUCT_RELATED_PRODUCT_CATEGORY('part','',(#18));
#18=PRODUCT('\X2\96F64EF6\X0\1_par','\X2\96F64EF6\X0\1_par',' ',(#19));
#19=PRODUCT_CONTEXT(' ',#21,'mechanical');
#20=APPLICATION_PROTOCOL_DEFINITION('international standard',
'automotive_design',2010,#21);
#21=APPLICATION_CONTEXT(
'core data for automotive mechanical design processes');
#22=SHAPE_REPRESENTATION('\X2\96F64EF6\X0\1_par-None',(#142),#225);
#23=PRESENTATION_LAYER_ASSIGNMENT('1','Layer 1',(#32));
#24=STYLED_ITEM('',(#25),#32);
#25=PRESENTATION_STYLE_ASSIGNMENT((#26));
#26=SURFACE_STYLE_USAGE(.BOTH.,#27);
#27=SURFACE_SIDE_STYLE('',(#28));
#28=SURFACE_STYLE_FILL_AREA(#29);
#29=FILL_AREA_STYLE('',(#30));
#30=FILL_AREA_STYLE_COLOUR('',#31);
#31=COLOUR_RGB('pale ice',0.811764705882353,0.843137254901961,0.909803921568627);
#32=MANIFOLD_SOLID_BREP('',#33);
#33=CLOSED_SHELL('',(#43,#44,#45,#46,#47,#48,#49));
#34=FACE_OUTER_BOUND('',#80,.T.);
#35=FACE_OUTER_BOUND('',#81,.T.);
#36=FACE_OUTER_BOUND('',#82,.T.);
#37=FACE_OUTER_BOUND('',#83,.T.);
#38=PLANE('',#151);
#39=PLANE('',#152);
#40=PLANE('',#153);
#41=PLANE('',#154);
#42=PLANE('',#155);
#43=ADVANCED_FACE('',(#68,#69),#50,.T.);
#44=ADVANCED_FACE('',(#70,#71),#51,.F.);
#45=ADVANCED_FACE('',(#72,#73),#38,.F.);
#46=ADVANCED_FACE('',(#34),#39,.T.);
#47=ADVANCED_FACE('',(#35),#40,.F.);
#48=ADVANCED_FACE('',(#36),#41,.F.);
#49=ADVANCED_FACE('',(#37),#42,.F.);
#50=CYLINDRICAL_SURFACE('',#146,25.);
#51=CYLINDRICAL_SURFACE('',#150,15.);
#52=LINE('',#198,#60);
#53=LINE('',#202,#61);
#54=LINE('',#209,#62);
#55=LINE('',#213,#63);
#56=LINE('',#216,#64);
#57=LINE('',#217,#65);
#58=LINE('',#219,#66);
#59=LINE('',#221,#67);
#60=VECTOR('',#162,1.);
#61=VECTOR('',#165,1.);
#62=VECTOR('',#172,1.);
#63=VECTOR('',#175,1.);
#64=VECTOR('',#180,1.);
#65=VECTOR('',#181,1.);
#66=VECTOR('',#184,1.);
#67=VECTOR('',#187,1.);
#68=FACE_BOUND('',#74,.T.);
#69=FACE_BOUND('',#75,.T.);
#70=FACE_BOUND('',#76,.T.);
#71=FACE_BOUND('',#77,.T.);
#72=FACE_BOUND('',#78,.T.);
#73=FACE_BOUND('',#79,.T.);
#74=EDGE_LOOP('',(#84));
#75=EDGE_LOOP('',(#85,#86,#87,#88));
#76=EDGE_LOOP('',(#89));
#77=EDGE_LOOP('',(#90,#91,#92,#93));
#78=EDGE_LOOP('',(#94));
#79=EDGE_LOOP('',(#95));
#80=EDGE_LOOP('',(#96,#97,#98,#99));
#81=EDGE_LOOP('',(#100,#101,#102,#103));
#82=EDGE_LOOP('',(#104,#105,#106,#107));
#83=EDGE_LOOP('',(#108,#109,#110,#111));
#84=ORIENTED_EDGE('',*,*,#122,.T.);
#85=ORIENTED_EDGE('',*,*,#123,.F.);
#86=ORIENTED_EDGE('',*,*,#124,.T.);
#87=ORIENTED_EDGE('',*,*,#125,.F.);
#88=ORIENTED_EDGE('',*,*,#126,.F.);
#89=ORIENTED_EDGE('',*,*,#127,.F.);
#90=ORIENTED_EDGE('',*,*,#128,.F.);
#91=ORIENTED_EDGE('',*,*,#129,.T.);
#92=ORIENTED_EDGE('',*,*,#130,.F.);
#93=ORIENTED_EDGE('',*,*,#131,.F.);
#94=ORIENTED_EDGE('',*,*,#127,.T.);
#95=ORIENTED_EDGE('',*,*,#122,.F.);
#96=ORIENTED_EDGE('',*,*,#132,.F.);
#97=ORIENTED_EDGE('',*,*,#130,.T.);
#98=ORIENTED_EDGE('',*,*,#133,.F.);
#99=ORIENTED_EDGE('',*,*,#125,.T.);
#100=ORIENTED_EDGE('',*,*,#132,.T.);
#101=ORIENTED_EDGE('',*,*,#124,.F.);
#102=ORIENTED_EDGE('',*,*,#134,.F.);
#103=ORIENTED_EDGE('',*,*,#131,.T.);
#104=ORIENTED_EDGE('',*,*,#133,.T.);
#105=ORIENTED_EDGE('',*,*,#129,.F.);
#106=ORIENTED_EDGE('',*,*,#135,.F.);
#107=ORIENTED_EDGE('',*,*,#126,.T.);
#108=ORIENTED_EDGE('',*,*,#128,.T.);
#109=ORIENTED_EDGE('',*,*,#134,.T.);
#110=ORIENTED_EDGE('',*,*,#123,.T.);
#111=ORIENTED_EDGE('',*,*,#135,.T.);
#112=VERTEX_POINT('',#194);
#113=VERTEX_POINT('',#196);
#114=VERTEX_POINT('',#197);
#115=VERTEX_POINT('',#199);
#116=VERTEX_POINT('',#201);
#117=VERTEX_POINT('',#205);
#118=VERTEX_POINT('',#207);
#119=VERTEX_POINT('',#208);
#120=VERTEX_POINT('',#210);
#121=VERTEX_POINT('',#212);
#122=EDGE_CURVE('',#112,#112,#136,.T.);
#123=EDGE_CURVE('',#113,#114,#137,.T.);
#124=EDGE_CURVE('',#113,#115,#52,.T.);
#125=EDGE_CURVE('',#116,#115,#138,.T.);
#126=EDGE_CURVE('',#114,#116,#53,.T.);
#127=EDGE_CURVE('',#117,#117,#139,.T.);
#128=EDGE_CURVE('',#118,#119,#140,.T.);
#129=EDGE_CURVE('',#118,#120,#54,.T.);
#130=EDGE_CURVE('',#121,#120,#141,.T.);
#131=EDGE_CURVE('',#119,#121,#55,.T.);
#132=EDGE_CURVE('',#121,#115,#56,.T.);
#133=EDGE_CURVE('',#116,#120,#57,.T.);
#134=EDGE_CURVE('',#119,#113,#58,.T.);
#135=EDGE_CURVE('',#114,#118,#59,.T.);
#136=CIRCLE('',#143,25.);
#137=CIRCLE('',#144,25.);
#138=CIRCLE('',#145,25.);
#139=CIRCLE('',#147,15.);
#140=CIRCLE('',#148,15.);
#141=CIRCLE('',#149,15.);
#142=AXIS2_PLACEMENT_3D('',#192,#156,#157);
#143=AXIS2_PLACEMENT_3D('',#193,#158,#159);
#144=AXIS2_PLACEMENT_3D('',#195,#160,#161);
#145=AXIS2_PLACEMENT_3D('',#200,#163,#164);
#146=AXIS2_PLACEMENT_3D('',#203,#166,#167);
#147=AXIS2_PLACEMENT_3D('',#204,#168,#169);
#148=AXIS2_PLACEMENT_3D('',#206,#170,#171);
#149=AXIS2_PLACEMENT_3D('',#211,#173,#174);
#150=AXIS2_PLACEMENT_3D('',#214,#176,#177);
#151=AXIS2_PLACEMENT_3D('',#215,#178,#179);
#152=AXIS2_PLACEMENT_3D('',#218,#182,#183);
#153=AXIS2_PLACEMENT_3D('',#220,#185,#186);
#154=AXIS2_PLACEMENT_3D('',#222,#188,#189);
#155=AXIS2_PLACEMENT_3D('',#223,#190,#191);
#156=DIRECTION('',(0.,0.,1.));
#157=DIRECTION('',(1.,0.,0.));
#158=DIRECTION('',(0.,0.,-1.));
#159=DIRECTION('',(1.,0.,0.));
#160=DIRECTION('',(0.,0.,-1.));
#161=DIRECTION('',(1.,0.,0.));
#162=DIRECTION('',(0.,0.,-1.));
#163=DIRECTION('',(0.,0.,-1.));
#164=DIRECTION('',(1.,0.,0.));
#165=DIRECTION('',(0.,0.,-1.));
#166=DIRECTION('',(0.,0.,-1.));
#167=DIRECTION('',(-1.,0.,0.));
#168=DIRECTION('',(0.,0.,-1.));
#169=DIRECTION('',(1.,0.,0.));
#170=DIRECTION('',(0.,0.,1.));
#171=DIRECTION('',(1.,0.,0.));
#172=DIRECTION('',(0.,0.,-1.));
#173=DIRECTION('',(0.,0.,1.));
#174=DIRECTION('',(-1.,0.,0.));
#175=DIRECTION('',(0.,0.,-1.));
#176=DIRECTION('',(0.,0.,1.));
#177=DIRECTION('',(1.,0.,0.));
#178=DIRECTION('',(0.,0.,-1.));
#179=DIRECTION('',(-1.,0.,0.));
#180=DIRECTION('',(0.,-1.,0.));
#181=DIRECTION('',(0.,-1.,0.));
#182=DIRECTION('',(0.,0.,-1.));
#183=DIRECTION('',(-1.,0.,0.));
#184=DIRECTION('',(0.,-1.,0.));
#185=DIRECTION('',(1.,0.,0.));
#186=DIRECTION('',(0.,0.,-1.));
#187=DIRECTION('',(0.,-1.,0.));
#188=DIRECTION('',(1.,0.,0.));
#189=DIRECTION('',(0.,0.,-1.));
#190=DIRECTION('',(0.,0.,1.));
#191=DIRECTION('',(1.,0.,0.));
#192=CARTESIAN_POINT('',(0.,0.,0.));
#193=CARTESIAN_POINT('',(0.,0.,55.));
#194=CARTESIAN_POINT('',(25.,0.,55.));
#195=CARTESIAN_POINT('',(0.,0.,35.));
#196=CARTESIAN_POINT('',(0.,-25.,35.));
#197=CARTESIAN_POINT('',(-4.59242549680257E-15,25.,35.));
#198=CARTESIAN_POINT('',(0.,-25.,35.));
#199=CARTESIAN_POINT('',(0.,-25.,0.));
#200=CARTESIAN_POINT('',(0.,0.,0.));
#201=CARTESIAN_POINT('',(-4.59242549680257E-15,25.,0.));
#202=CARTESIAN_POINT('',(-4.59242549680257E-15,25.,35.));
#203=CARTESIAN_POINT('',(0.,0.,35.));
#204=CARTESIAN_POINT('',(0.,0.,55.));
#205=CARTESIAN_POINT('',(15.,0.,55.));
#206=CARTESIAN_POINT('',(0.,0.,35.));
#207=CARTESIAN_POINT('',(0.,15.,35.));
#208=CARTESIAN_POINT('',(0.,-15.,35.));
#209=CARTESIAN_POINT('',(0.,15.,35.));
#210=CARTESIAN_POINT('',(0.,15.,0.));
#211=CARTESIAN_POINT('',(0.,0.,0.));
#212=CARTESIAN_POINT('',(0.,-15.,0.));
#213=CARTESIAN_POINT('',(0.,-15.,35.));
#214=CARTESIAN_POINT('',(0.,0.,-16.7860036324461));
#215=CARTESIAN_POINT('',(0.,0.,55.));
#216=CARTESIAN_POINT('',(0.,-15.,0.));
#217=CARTESIAN_POINT('',(0.,15.,0.));
#218=CARTESIAN_POINT('',(0.,0.,0.));
#219=CARTESIAN_POINT('',(0.,-15.,35.));
#220=CARTESIAN_POINT('',(0.,-15.,35.));
#221=CARTESIAN_POINT('',(0.,15.,35.));
#222=CARTESIAN_POINT('',(0.,15.,35.));
#223=CARTESIAN_POINT('',(0.,0.,35.));
#224=MECHANICAL_DESIGN_GEOMETRIC_PRESENTATION_REPRESENTATION('',(#24),#225);
#225=(
GEOMETRIC_REPRESENTATION_CONTEXT(3)
GLOBAL_UNCERTAINTY_ASSIGNED_CONTEXT((#226))
GLOBAL_UNIT_ASSIGNED_CONTEXT((#232,#228,#227))
REPRESENTATION_CONTEXT('\X2\96F64EF6\X0\1_par',
'TOP_LEVEL_ASSEMBLY_PART')
);
#226=UNCERTAINTY_MEASURE_WITH_UNIT(LENGTH_MEASURE(2.E-5),#232,
'DISTANCE_ACCURACY_VALUE','Maximum Tolerance applied to model');
#227=(
NAMED_UNIT(*)
SI_UNIT($,.STERADIAN.)
SOLID_ANGLE_UNIT()
);
#228=(
CONVERSION_BASED_UNIT('DEGREE',#230)
NAMED_UNIT(#229)
PLANE_ANGLE_UNIT()
);
#229=DIMENSIONAL_EXPONENTS(0.,0.,0.,0.,0.,0.,0.);
#230=PLANE_ANGLE_MEASURE_WITH_UNIT(PLANE_ANGLE_MEASURE(0.0174532925),#231);
#231=(
NAMED_UNIT(*)
PLANE_ANGLE_UNIT()
SI_UNIT($,.RADIAN.)
);
#232=(
LENGTH_UNIT()
NAMED_UNIT(*)
SI_UNIT(.MILLI.,.METRE.)
);
ENDSEC;
END-ISO-10303-21;
